<svg width="413" height="147" viewBox="0 0 413 147" fill="none" xmlns="http://www.w3.org/2000/svg">
<path d="M59.2812 20.3906L24.9062 143.047H0.101562L45.2188 0.859375H60.6484L59.2812 20.3906ZM86.7227 143.047L52.25 20.3906L50.5898 0.859375H66.3125L111.625 143.047H86.7227ZM87.3086 90.2148V110.137H21.0977V90.2148H87.3086Z" fill="#181818"/>
<path d="M193.363 72.0508V128.105C191.605 130.254 188.936 132.826 185.355 135.82C181.84 138.75 177.087 141.354 171.098 143.633C165.173 145.846 157.686 146.953 148.637 146.953C141.02 146.953 134.053 145.716 127.738 143.242C121.488 140.768 116.117 137.025 111.625 132.012C107.133 126.999 103.682 120.749 101.273 113.262C98.8646 105.71 97.6602 96.7904 97.6602 86.5039V61.2109C97.6602 51.0547 98.7344 42.2005 100.883 34.6484C103.096 27.0964 106.319 20.8138 110.551 15.8008C114.783 10.7227 119.926 6.97917 125.98 4.57031C132.035 2.09635 139.001 0.859375 146.879 0.859375C156.84 0.859375 165.141 2.61719 171.781 6.13281C178.487 9.58333 183.598 14.7266 187.113 21.5625C190.694 28.3333 192.777 36.6016 193.363 46.3672H170.219C169.698 40.3776 168.559 35.5273 166.801 31.8164C165.108 28.0404 162.667 25.2409 159.477 23.418C156.286 21.5951 152.185 20.6836 147.172 20.6836C142.615 20.6836 138.708 21.4648 135.453 23.0273C132.198 24.5898 129.529 27.0312 127.445 30.3516C125.362 33.6068 123.832 37.7734 122.855 42.8516C121.879 47.9297 121.391 53.9844 121.391 61.0156V86.5039C121.391 93.6654 122.009 99.8177 123.246 104.961C124.483 110.104 126.273 114.336 128.617 117.656C131.026 120.911 133.988 123.32 137.504 124.883C141.02 126.38 145.023 127.129 149.516 127.129C153.943 127.129 157.458 126.673 160.063 125.762C162.667 124.85 164.685 123.841 166.117 122.734C167.615 121.562 168.819 120.651 169.73 120V90.7031H146.781V72.0508H193.363Z" fill="#181818"/>
<path d="M220.488 111.895L243.242 0.859375H257.305L256.719 28.6914L232.109 143.047H217.363L220.488 111.895ZM206.035 0.859375L224.102 111.113L224.883 143.047H209.355L182.5 0.859375H206.035ZM282.012 110.723L299.883 0.859375H323.32L296.562 143.047H281.035L282.012 110.723ZM262.969 0.859375L285.527 112.188L288.457 143.047H273.711L249.688 28.5938L249.102 0.859375H262.969Z" fill="#181818"/>
<path d="M367.875 90.3125H337.895V70.4883H367.875C372.758 70.4883 376.697 69.4466 379.691 67.3633C382.751 65.2799 384.965 62.4154 386.332 58.7695C387.764 55.1237 388.48 50.9896 388.48 46.3672C388.48 41.9401 387.764 37.7734 386.332 33.8672C384.965 29.9609 382.784 26.8034 379.789 24.3945C376.794 21.9857 372.823 20.7812 367.875 20.7812H344.535V143.047H320.902V0.859375H367.875C377.25 0.859375 385.258 2.8125 391.898 6.71875C398.539 10.625 403.617 15.9961 407.133 22.832C410.648 29.6029 412.406 37.3828 412.406 46.1719C412.406 55.3516 410.648 63.2292 407.133 69.8047C403.617 76.3802 398.539 81.4583 391.898 85.0391C385.258 88.5547 377.25 90.3125 367.875 90.3125Z" fill="#181818"/>
<path d="M187 72.0508L348 70.4883V90.7031L187 93V72.0508Z" fill="#181818"/>
</svg>
