<svg width="402" height="95" viewBox="0 0 402 95" fill="none" xmlns="http://www.w3.org/2000/svg">
<path d="M50.811 11.3636L21.297 82.7273H0L38.7371 0H51.9848L50.811 11.3636ZM74.3719 82.7273L44.774 11.3636L43.3487 0H56.8479L95.7527 82.7273H74.3719ZM74.8749 51.9886V63.5795H18.027V51.9886H74.8749Z" fill="#181818"/>
<path d="M165.932 41.4205V74.0341C164.423 75.2841 162.131 76.7803 159.057 78.5227C156.038 80.2273 151.958 81.7424 146.815 83.0682C141.729 84.3561 135.3 85 127.531 85C120.991 85 115.01 84.2803 109.587 82.8409C104.221 81.4015 99.6097 79.2235 95.7527 76.3068C91.8958 73.3902 88.9332 69.7538 86.865 65.3977C84.7968 61.0038 83.7627 55.8144 83.7627 49.8295V35.1136C83.7627 29.2045 84.685 24.053 86.5296 19.6591C88.4301 15.2652 91.1971 11.6098 94.8304 8.69318C98.4638 5.73864 102.88 3.56061 108.078 2.15909C113.277 0.719697 119.258 0 126.021 0C134.574 0 141.701 1.02273 147.402 3.06818C153.16 5.07576 157.548 8.06818 160.566 12.0455C163.64 15.9848 165.429 20.7955 165.932 26.4773H146.061C145.613 22.9924 144.635 20.1705 143.126 18.0114C141.673 15.8144 139.577 14.1856 136.838 13.125C134.099 12.0644 130.577 11.5341 126.273 11.5341C122.36 11.5341 119.006 11.9886 116.211 12.8977C113.416 13.8068 111.125 15.2273 109.336 17.1591C107.547 19.053 106.234 21.4773 105.395 24.4318C104.557 27.3864 104.137 30.9091 104.137 35V49.8295C104.137 53.9962 104.668 57.5758 105.73 60.5682C106.793 63.5606 108.33 66.0227 110.342 67.9546C112.41 69.8485 114.954 71.25 117.972 72.1591C120.991 73.0303 124.428 73.4659 128.285 73.4659C132.086 73.4659 135.105 73.2008 137.341 72.6705C139.577 72.1402 141.309 71.553 142.539 70.9091C143.825 70.2273 144.859 69.697 145.641 69.3182V52.2727H125.937V41.4205H165.932Z" fill="#181818"/>
<path d="M189.221 64.6023L208.758 0H220.832L220.329 16.1932L199.199 82.7273H186.538L189.221 64.6023ZM176.812 0L192.324 64.1477L192.995 82.7273H179.663L156.605 0H176.812ZM242.045 63.9205L257.389 0H277.512L254.538 82.7273H241.206L242.045 63.9205ZM225.695 0L245.063 64.7727L247.579 82.7273H234.918L214.292 16.1364L213.788 0H225.695Z" fill="#181818"/>
<path d="M315.766 52.0455H290.025V40.5114H315.766C319.958 40.5114 323.34 39.9053 325.911 38.6932C328.539 37.4811 330.439 35.8144 331.613 33.6932C332.843 31.572 333.458 29.1667 333.458 26.4773C333.458 23.9015 332.843 21.4773 331.613 19.2045C330.439 16.9318 328.567 15.0947 325.995 13.6932C323.424 12.2917 320.014 11.5909 315.766 11.5909H295.727V82.7273H275.436V0H315.766C323.815 0 330.691 1.13636 336.392 3.40909C342.094 5.68182 346.454 8.80682 349.472 12.7841C352.491 16.7235 354 21.25 354 26.3636C354 31.7045 352.491 36.2879 349.472 40.1136C346.454 43.9394 342.094 46.8939 336.392 48.9773C330.691 51.0227 323.815 52.0455 315.766 52.0455Z" fill="#181818"/>
<path d="M160.469 41.4205L298.702 40.5114V52.2727L160.469 53.6091V41.4205Z" fill="#181818"/>
<path d="M0 88H402V95H0V88Z" fill="#181818"/>
</svg>
